<svg width="31" height="29" viewBox="0 0 31 29" version="1.1" xmlns="http://www.w3.org/2000/svg" xmlns:xlink="http://www.w3.org/1999/xlink">
<title>sport-24px-outline_user-swim</title>
<desc>Created using Figma</desc>
<g id="Canvas" transform="translate(27040 -4253)">
<g id="sport-24px-outline_user-swim">
<g id="Vector">
<use xlink:href="#path0_fill" transform="translate(-27039 4253)" fill="#BDBDBD"/>
</g>
<g id="Vector">
<use xlink:href="#path1_fill" transform="translate(-27029.3 4259.65)" fill="#FFFFFF"/>
</g>
</g>
</g>
<defs>
<path id="path0_fill" d="M 14.5679 0C 6.52225 0 0 6.49214 0 14.5C 0 22.5079 6.52225 29 14.5679 29C 22.6136 29 29.1358 22.5079 29.1358 14.5C 29.1358 6.49214 22.6136 0 14.5679 0Z"/>
<path id="path1_fill" d="M 4.87544 1.52038e-05C 7.14029 0.00601931 8.95811 1.80425 8.94646 4.02692C 8.93504 6.19833 7.08747 7.95823 4.82643 7.95084C 2.58846 7.94345 0.753025 6.14245 0.766348 3.96665C 0.778957 1.76707 2.61534 -0.0059889 4.87544 1.52038e-05ZM 9.46271 9.51283C 8.96192 10.0119 8.35907 10.373 7.68961 10.625C 7.05678 10.8631 6.36329 10.9829 5.6767 11.0628C 5.78066 11.1723 5.82943 11.2261 5.89414 11.2889C 6.82578 12.198 7.76193 13.1026 8.69047 14.0143C 9.00689 14.3251 9.07279 14.7103 8.89864 15.0712C 8.70855 15.4661 8.28199 15.7257 7.86352 15.6977C 7.59849 15.68 7.39175 15.5523 7.20833 15.3728C 6.50508 14.6861 5.78851 14.0115 5.10002 13.3118C 4.89899 13.1081 4.80287 13.1469 4.62564 13.3238C 3.91835 14.0309 3.1994 14.7267 2.47641 15.4188C 2.15167 15.7296 1.76531 15.786 1.38847 15.6081C 0.988074 15.4202 0.733517 15.0232 0.753026 14.6239C 0.766824 14.3547 0.903381 14.1482 1.09418 13.9639C 2.01654 13.0705 2.93604 12.1743 3.85578 11.2787C 3.91692 11.2194 3.97354 11.1563 4.06228 11.064C 2.80781 10.9367 1.67657 10.637 0.708061 9.90194C 0.587682 9.81049 0.463733 9.72228 0.354297 9.61975C -0.0698867 9.22463 -0.112472 8.77178 0.222736 8.30577C 0.509887 7.90673 0.991405 7.80004 1.49219 8.02935C 1.58926 8.07346 1.68157 8.12934 1.77007 8.18846C 3.57481 9.39228 6.05425 9.42531 7.86613 8.24227C 8.04551 8.10925 8.2375 7.99979 8.45994 7.9446C 8.89198 7.83653 9.29546 7.99102 9.52718 8.35819C 9.79245 8.77779 9.78935 9.18699 9.46271 9.51283Z"/>
</defs>
</svg>
