<svg width="42" height="25" viewBox="0 0 42 25" version="1.1" xmlns="http://www.w3.org/2000/svg" xmlns:xlink="http://www.w3.org/1999/xlink">
<title>Vector</title>
<desc>Created using Figma</desc>
<g id="Canvas" transform="translate(27089 -4255)">
<g id="Vector">
<use xlink:href="#path0_fill" transform="translate(-27089 4255.72)" fill="#BDBDBD"/>
</g>
</g>
<defs>
<path id="path0_fill" fill-rule="evenodd" d="M 20.3762 23.3779L 22.8656 23.3779C 22.8656 23.3779 23.6176 23.2963 24.0015 22.8874C 24.3549 22.512 24.3436 21.807 24.3436 21.807C 24.3436 21.807 24.2949 18.5064 25.8452 18.0204C 27.3735 17.5416 29.3359 21.2103 31.416 22.6209C 32.9889 23.6885 34.1841 23.4544 34.1841 23.4544L 39.7458 23.3779C 39.7458 23.3779 42.6553 23.2008 41.2758 20.9405C 41.1627 20.7556 40.4724 19.2684 37.1405 16.2126C 33.6532 13.0142 34.1202 13.5316 38.3211 7.99917C 40.8794 4.6299 41.9022 2.57293 41.5828 1.69192C 41.278 0.852819 39.3964 1.07461 39.3964 1.07461L 33.1342 1.11315C 33.1342 1.11315 32.67 1.05058 32.3257 1.25394C 31.9893 1.45338 31.7728 1.91818 31.7728 1.91818C 31.7728 1.91818 30.7816 4.52544 29.4598 6.74275C 26.6713 11.4215 25.5563 11.6684 25.1006 11.3779C 24.0405 10.7008 24.3051 8.65783 24.3051 7.20644C 24.3051 2.67237 25.0011 0.781871 22.9499 0.292487C 22.2692 0.129917 21.7682 0.0226552 20.0274 0.00533679C 17.793 -0.0175682 15.9018 0.0120399 14.8309 0.530474C 14.1185 0.875166 13.569 1.64332 13.9037 1.68745C 14.3176 1.7422 15.255 1.93717 15.7519 2.60589C 16.3937 3.46846 16.371 5.40588 16.371 5.40588C 16.371 5.40588 16.7397 10.7433 15.51 11.4064C 14.6658 11.8612 13.5079 10.9327 11.0219 6.688C 9.7481 4.5137 8.78638 2.11036 8.78638 2.11036C 8.78638 2.11036 8.60093 1.6612 8.27018 1.42097C 7.86876 1.12991 7.30789 1.03718 7.30789 1.03718L 1.35719 1.07572C 1.35719 1.07572 0.463882 1.10031 0.135958 1.4841C -0.155782 1.82544 0.112776 2.53159 0.112776 2.53159C 0.112776 2.53159 4.77157 13.3014 10.0466 18.7288C 14.8835 23.7047 20.3762 23.3779 20.3762 23.3779Z"/>
</defs>
</svg>
