<svg width="36" height="36" viewBox="0 0 36 36" version="1.1" xmlns="http://www.w3.org/2000/svg" xmlns:xlink="http://www.w3.org/1999/xlink">
<title>Vector</title>
<desc>Created using Figma</desc>
<g id="Canvas" transform="translate(10764 -57)">
<g id="Vector" filter="url(#filter0_d)">
<use xlink:href="#path0_fill" transform="translate(-10755 65)"/>
</g>
</g>
<defs>
<filter id="filter0_d" filterUnits="userSpaceOnUse" x="-10764" y="57" width="36" height="36" color-interpolation-filters="sRGB">
<feFlood flood-opacity="0" result="BackgroundImageFix"/>
<feColorMatrix in="SourceAlpha" type="matrix" values="0 0 0 0 0 0 0 0 0 0 0 0 0 0 0 0 0 0 255 0"/>
<feOffset dx="0" dy="1"/>
<feGaussianBlur stdDeviation="4.5"/>
<feColorMatrix type="matrix" values="0 0 0 0 0 0 0 0 0 0 0 0 0 0 0 0 0 0 0.09 0"/>
<feBlend mode="normal" in2="BackgroundImageFix" result="effect1_dropShadow"/>
<feBlend mode="normal" in="SourceGraphic" in2="effect1_dropShadow" result="shape"/>
</filter>
<path id="path0_fill" d="M 18 14.6698L 14.6662 18C 14.6662 18 9.39222 12.3399 8.9985 12.3399C 8.61078 12.3399 3.33533 18 3.33533 18L 0 14.6698C 0 14.6698 5.66467 9.47093 5.66467 9.00824C 5.66467 8.53806 0 3.33766 0 3.33766L 3.33533 0C 3.33533 0 8.65419 5.66309 8.9985 5.66309C 9.34581 5.66309 14.6662 0 14.6662 0L 18 3.33766C 18 3.33766 12.3338 8.61293 12.3338 9.00824C 12.3338 9.38408 18 14.6698 18 14.6698Z"/>
</defs>
</svg>
