<svg width="28" height="33" viewBox="0 0 28 33" version="1.1" xmlns="http://www.w3.org/2000/svg" xmlns:xlink="http://www.w3.org/1999/xlink">
<title>Vector</title>
<desc>Created using Figma</desc>
<g id="Canvas" transform="translate(58827 -986)">
<g id="Vector">
<use xlink:href="#path0_fill" transform="translate(-58827 986)" fill="#008D21"/>
</g>
</g>
<defs>
<path id="path0_fill" d="M 27.797 8.17677L 19.5847 0.197291C 19.4546 0.0709628 19.2783 0 19.0945 0L 3.36852 0C 1.51106 0 1.61946e-08 1.46837 1.61946e-08 3.27318L 1.61946e-08 29.7269C 1.61946e-08 31.5316 1.51113 33 3.36859 33L 24.6314 33C 26.4889 33 28 31.5317 28 29.7269L 28 8.65301C 27.9999 8.47441 27.9269 8.30309 27.797 8.17677ZM 19.7878 2.29962L 25.6336 7.9796L 21.7702 7.9796C 21.2406 7.9796 20.7427 7.77922 20.3683 7.41545C 19.994 7.05174 19.7878 6.56802 19.7878 6.05349L 19.7878 2.29962ZM 26.6137 29.7268C 26.6137 30.7889 25.7244 31.653 24.6314 31.653L 3.36852 31.653C 2.27542 31.653 1.38616 30.7889 1.38616 29.7268L 1.38616 3.27318C 1.38623 2.21106 2.27549 1.34694 3.36852 1.34694L 18.4016 1.34694L 18.4016 6.05336C 18.4015 6.92767 18.7519 7.74964 19.3881 8.3678C 20.0243 8.98604 20.8703 9.32648 21.7701 9.32648L 26.6136 9.32648L 26.6136 29.7268L 26.6137 29.7268Z"/>
</defs>
</svg>
