<svg width="52" height="52" viewBox="0 0 52 52" version="1.1" xmlns="http://www.w3.org/2000/svg" xmlns:xlink="http://www.w3.org/1999/xlink">
<title>Component</title>
<desc>Created using Figma</desc>
<g id="Canvas" transform="translate(58473 -887)">
<g id="Component">
<g id="Rectangle 40">
<use xlink:href="#path0_fill" transform="translate(-58473 887)" fill="#FFFFFF"/>
<mask id="mask0_outline_ins">
<use xlink:href="#path0_fill" fill="white" transform="translate(-58473 887)"/>
</mask>
<g mask="url(#mask0_outline_ins)">
<use xlink:href="#path1_stroke_2x" transform="translate(-58473 887)" fill="#D0D0D0"/>
</g>
</g>
<g id="&#208;&#148;&#208;&#190;&#208;&#186;&#209;&#131;&#208;&#188;&#208;&#181;&#208;&#189;&#209;&#130;&#209;&#139; &#208;&#184; &#208;&#190;&#209;&#130;&#209;&#135;&#209;&#145;&#209;&#130;&#209;&#139; &#194;&#171;&#208;&#150;&#208;&#184;&#208;&#187;&#209;&#132;&#208;&#190;&#208;&#189;&#208;&#180;&#208;&#176;&#194;&#187;">
<g id="Group">
<g id="Rectangle 54">
<use xlink:href="#path2_fill" transform="translate(-58454 901)" fill="#FFFFFF"/>
</g>
<g id="Rectangle 52">
<mask id="mask1_outline_ins">
<use xlink:href="#path3_fill" fill="white" transform="translate(-58455 900)"/>
</mask>
<g mask="url(#mask1_outline_ins)">
<use xlink:href="#path4_stroke_2x" transform="translate(-58455 900)"/>
<use xlink:href="#path4_stroke_2x" transform="translate(-58455 900)" fill="#008D21"/>
</g>
</g>
</g>
<g id="Group">
<g id="Rectangle 54">
<use xlink:href="#path5_fill" transform="translate(-58459 904)" fill="#FFFFFF"/>
</g>
<g id="Vector">
<use xlink:href="#path6_fill" transform="translate(-58459 904)" fill="#008D21"/>
</g>
</g>
</g>
</g>
</g>
<defs>
<path id="path0_fill" d="M 0 26C 0 11.6406 11.6406 0 26 0L 26 0C 40.3594 0 52 11.6406 52 26L 52 26C 52 40.3594 40.3594 52 26 52L 26 52C 11.6406 52 0 40.3594 0 26L 0 26Z"/>
<path id="path1_stroke_2x" d="M 26 -1C 11.0883 -1 -1 11.0883 -1 26L 1 26C 1 12.1929 12.1929 1 26 1L 26 -1ZM 26 1C 39.8071 1 51 12.1929 51 26L 53 26C 53 11.0883 40.9117 -1 26 -1L 26 1ZM 51 26C 51 39.8071 39.8071 51 26 51L 26 53C 40.9117 53 53 40.9117 53 26L 51 26ZM 26 51C 12.1929 51 1 39.8071 1 26L -1 26C -1 40.9117 11.0883 53 26 53L 26 51Z"/>
<path id="path2_fill" d="M 0 0L 16 0L 16 20L 0 20L 0 0Z"/>
<path id="path3_fill" d="M 0 1C 0 0.447715 0.447715 0 1 0L 17 0C 17.5523 0 18 0.447715 18 1L 18 21C 18 21.5523 17.5523 22 17 22L 1 22C 0.447715 22 0 21.5523 0 21L 0 1Z"/>
<path id="path4_stroke_2x" d="M 1 1L 17 1L 17 -1L 1 -1L 1 1ZM 17 1L 17 21L 19 21L 19 1L 17 1ZM 17 21L 1 21L 1 23L 17 23L 17 21ZM 1 21L 1 1L -1 1L -1 21L 1 21ZM 1 -1C -0.104569 -1 -1 -0.104569 -1 1L 1 1L 1 1L 1 -1ZM 17 1L 17 1L 19 1C 19 -0.104569 18.1046 -1 17 -1L 17 1ZM 17 21L 17 23C 18.1046 23 19 22.1046 19 21L 17 21ZM 1 21L 1 21L -1 21C -1 22.1046 -0.104569 23 1 23L 1 21Z"/>
<path id="path5_fill" d="M 0 0L 18 0L 18 22L 0 22L 0 0Z"/>
<path id="path6_fill" d="M 17.8695 5.45118L 12.5901 0.131527C 12.5065 0.0473085 12.3932 0 12.2751 0L 2.16548 0C 0.971399 0 1.04108e-08 0.978912 1.04108e-08 2.18212L 1.04108e-08 19.8179C 1.04108e-08 21.0211 0.971441 22 2.16552 22L 15.8345 22C 17.0286 22 18 21.0211 18 19.8179L 18 5.76867C 18 5.64961 17.953 5.5354 17.8695 5.45118ZM 12.7208 1.53308L 16.4787 5.31974L 13.9951 5.31974C 13.6547 5.31974 13.3346 5.18615 13.0939 4.94363C 12.8533 4.70116 12.7207 4.37868 12.7208 4.03566L 12.7208 1.53308ZM 17.1088 19.8179C 17.1088 20.526 16.5371 21.102 15.8345 21.102L 2.16548 21.102C 1.46277 21.102 0.891103 20.526 0.891103 19.8179L 0.891103 2.18212C 0.891145 1.47404 1.46281 0.897959 2.16548 0.897959L 11.8296 0.897959L 11.8296 4.03557C 11.8295 4.61844 12.0548 5.16642 12.4638 5.57854C 12.8728 5.99069 13.4166 6.21765 13.9951 6.21765L 17.1088 6.21765L 17.1088 19.8179L 17.1088 19.8179Z"/>
</defs>
</svg>
