<svg width="12" height="7" viewBox="0 0 12 7" version="1.1" xmlns="http://www.w3.org/2000/svg" xmlns:xlink="http://www.w3.org/1999/xlink">
<title>Dropdown</title>
<desc>Created using Figma</desc>
<g id="Canvas" transform="translate(60674 -486)">
<g id="Dropdown">
<use xlink:href="#path0_fill" transform="matrix(0.707107 -0.707107 0.707107 0.707107 -60673.5 487.5)" fill="#008D21"/>
</g>
</g>
<defs>
<path id="path0_fill" fill-rule="evenodd" d="M 0.50248 0.0015537C 0.22631 0.00151054 0.00244738 0.225373 0.00249054 0.501544L 0.00115263 6.72321L 7.36717e-05 7.27672C -0.000616862 7.31055 0.00361266 7.34499 0.0100001 7.37728C 0.0563522 7.60161 0.251644 7.77092 0.48813 7.77751C 0.490223 7.77541 0.497862 7.77882 0.50002 7.77666L 1.05674 7.77789C 1.06684 7.77884 1.07426 7.77695 1.08454 7.77772L 7.2775 7.77746C 7.55367 7.77751 7.77754 7.55364 7.77749 7.27747L 7.77905 6.72349C 7.779 6.44732 7.55251 6.22083 7.27634 6.22078L 1.55669 6.22281L 1.55641 0.499947C 1.55636 0.223776 1.33263 4.31584e-05 1.05646 0L 0.50248 0.0015537Z"/>
</defs>
</svg>
