<svg width="29" height="19" viewBox="0 0 29 19" version="1.1" xmlns="http://www.w3.org/2000/svg" xmlns:xlink="http://www.w3.org/1999/xlink">
<title>Vector</title>
<desc>Created using Figma</desc>
<g id="Canvas" transform="translate(11938 8093)">
<g id="Vector">
<use xlink:href="#path0_fill" transform="translate(-11938 -8093)" fill="#D8DCDE"/>
</g>
</g>
<defs>
<path id="path0_fill" d="M 14.5 0C 7.90909 0 3 5 0 9.5C 3.5 14 7.90909 19 14.5 19C 21.0909 19 26 14.5 29 9.5C 26.5 6 21.0909 0 14.5 0ZM 14.5 15.8333C 10.8091 15.8333 7.90909 13.0467 7.90909 9.5C 7.90909 5.95333 10.8091 3.16667 14.5 3.16667C 18.1909 3.16667 21.0909 5.95333 21.0909 9.5C 21.0909 13.0467 18.1909 15.8333 14.5 15.8333ZM 14.5 5.7C 12.2591 5.7 10.5455 7.34667 10.5455 9.5C 10.5455 11.6533 12.2591 13.3 14.5 13.3C 16.7409 13.3 18.4545 11.6533 18.4545 9.5C 18.4545 7.34667 16.7409 5.7 14.5 5.7Z"/>
</defs>
</svg>
