<svg width="14" height="9" viewBox="0 0 14 9" version="1.1" xmlns="http://www.w3.org/2000/svg" xmlns:xlink="http://www.w3.org/1999/xlink">
<title>Dropdown</title>
<desc>Created using Figma</desc>
<g id="Canvas" transform="translate(46471 -312)">
<g id="Dropdown">
<use xlink:href="#path0_fill" transform="matrix(0.707107 -0.707107 0.707107 0.707107 -46471 314)" fill="#A8AAB7"/>
</g>
</g>
<defs>
<path id="path0_fill" fill-rule="evenodd" d="M 0.500249 2.15792e-05C 0.224078 -2.15792e-05 0.000215792 0.223841 0.00025895 0.500011L 0.00140265 8.50078L 0 9.49931C 0.000690534 9.53453 0.00353899 9.56759 0.00992643 9.59987C 0.0560411 9.8272 0.258972 9.99992 0.499947 9.99926L 1.49984 9.99926L 9.50065 10.0004C 9.77682 10.0004 10.0007 9.77654 10.0006 9.50037L 10.0007 8.50045C 10.0006 8.22428 9.77688 8.00055 9.50071 8.00051L 1.9992 8.00005L 2.00011 0.499947C 2.00007 0.223776 1.77633 4.31584e-05 1.50016 0L 0.500249 2.15792e-05Z"/>
</defs>
</svg>
