<svg width="42" height="42" viewBox="0 0 42 42" version="1.1" xmlns="http://www.w3.org/2000/svg" xmlns:xlink="http://www.w3.org/1999/xlink">
<title>Vector</title>
<desc>Created using Figma</desc>
<g id="Canvas" transform="translate(61352 -232)">
<g id="Vector">
<use xlink:href="#path0_fill" transform="translate(-61352 232)" fill="#008D21"/>
</g>
</g>
<defs>
<path id="path0_fill" d="M 41.7689 19.1646L 35.4825 13.3639L 35.4825 3.8607L 28.2411 3.8607L 28.2411 6.68229L 20.9996 0L 0.231143 19.1646C -0.061412 19.4352 -0.0787914 19.8907 0.193487 20.1822C 0.465042 20.4729 0.923426 20.4894 1.21743 20.2196L 3.62087 18.0017L 3.62087 42L 15.2072 42L 26.7935 42L 38.3799 42L 38.3799 18.001L 40.7833 20.2189C 40.9223 20.3477 41.0997 20.411 41.2764 20.411C 41.4712 20.411 41.6646 20.334 41.8065 20.1814C 42.0788 19.8907 42.0614 19.4352 41.7689 19.1646ZM 29.6894 5.29992L 34.0343 5.29992L 34.0343 12.0276L 29.6894 8.01861L 29.6894 5.29992ZM 16.6548 40.5608L 16.6548 25.4036C 16.6548 25.0316 16.9589 24.7294 17.3333 24.7294L 24.666 24.7294C 25.0404 24.7294 25.3445 25.0316 25.3445 25.4036L 25.3445 40.5608L 16.6548 40.5608L 16.6548 40.5608ZM 36.9308 40.5608L 26.7928 40.5608L 26.7928 25.4036C 26.7928 24.2379 25.8391 23.2902 24.666 23.2902L 17.3333 23.2902C 16.1602 23.2902 15.2065 24.2379 15.2065 25.4036L 15.2065 40.5608L 5.06844 40.5608L 5.06844 16.6647L 20.9996 1.96381L 31.3404 11.5058L 35.4825 15.3277L 36.9308 16.664L 36.9308 40.5608L 36.9308 40.5608Z"/>
</defs>
</svg>
