<svg width="15" height="16" viewBox="0 0 15 16" version="1.1" xmlns="http://www.w3.org/2000/svg" xmlns:xlink="http://www.w3.org/1999/xlink">
<title>logout</title>
<desc>Created using Figma</desc>
<g id="Canvas" transform="translate(37158 -612)">
<g id="logout">
<g id="Group">
<g id="Vector">
<use xlink:href="#path0_fill" transform="matrix(-1 1.22465e-16 -1.22465e-16 -1 -37145.7 624.121)" fill="#5E5E5E"/>
</g>
<g id="Vector">
<use xlink:href="#path1_fill" transform="matrix(-1 1.22465e-16 -1.22465e-16 -1 -37143 628)" fill="#5E5E5E"/>
</g>
</g>
</g>
</g>
<defs>
<path id="path0_fill" d="M 7.93065 0.213006C 7.66619 -0.0709698 7.2372 -0.0710182 6.97264 0.212958C 6.70813 0.496982 6.70808 0.957442 6.97264 1.24147L 8.97754 3.394L 0.677424 3.394C 0.303305 3.394 -4.9616e-08 3.71962 -4.9616e-08 4.12127C -4.9616e-08 4.52292 0.303305 4.84855 0.677424 4.84855L 8.97745 4.84855L 6.97264 7.00088C 6.70808 7.28491 6.70808 7.74537 6.97264 8.02939C 7.10492 8.17141 7.27829 8.24239 7.45167 8.24239C 7.62504 8.24239 7.79842 8.17141 7.93065 8.02939L 11.0919 4.63555C 11.3564 4.35158 11.3564 3.89107 11.0919 3.60704L 7.93065 0.213006Z"/>
<path id="path1_fill" d="M 6.54844 16C 6.92256 16 7.22586 15.6744 7.22586 15.2727C 7.22586 14.8711 6.92256 14.5455 6.54844 14.5455L 1.35485 14.5455L 1.35485 1.45455L 6.54844 1.45455C 6.92256 1.45455 7.22586 1.12892 7.22586 0.727273C 7.22586 0.325624 6.92256 0 6.54844 0L 0.677425 0C 0.303306 0 0 0.325624 0 0.727273L 0 15.2727C 0 15.6744 0.303306 16 0.677425 16L 6.54844 16Z"/>
</defs>
</svg>
