<svg width="22" height="22" viewBox="0 0 22 22" version="1.1" xmlns="http://www.w3.org/2000/svg" xmlns:xlink="http://www.w3.org/1999/xlink">
<title>sport-24px-outline_user-swim</title>
<desc>Created using Figma</desc>
<g id="Canvas" transform="translate(26668 -30)">
<g id="sport-24px-outline_user-swim">
<g id="Vector">
<use xlink:href="#path0_fill" transform="translate(-26668 30)" fill="#D8DCDE"/>
</g>
<g id="Vector">
<use xlink:href="#path1_fill" transform="translate(-26660.7 35.0417)" fill="#FFFFFF"/>
</g>
</g>
</g>
<defs>
<path id="path0_fill" d="M 11 0C 4.92485 0 0 4.92507 0 11C 0 17.0749 4.92485 22 11 22C 17.0752 22 22 17.0749 22 11C 22 4.92507 17.0752 0 11 0Z"/>
<path id="path1_fill" d="M 3.68137 1.15339e-05C 5.39152 0.00456637 6.76414 1.36874 6.75533 3.05491C 6.74671 4.70218 5.35164 6.03727 3.64436 6.03167C 1.95451 6.02606 0.568598 4.65979 0.578658 3.00918C 0.588179 1.34054 1.9748 -0.0045433 3.68137 1.15339e-05ZM 7.14515 7.21663C 6.76701 7.5952 6.31181 7.8692 5.80631 8.06032C 5.32847 8.24094 4.80482 8.33186 4.28639 8.39248C 4.36489 8.47551 4.40172 8.51633 4.45058 8.56398C 5.15404 9.25369 5.86092 9.9399 6.56205 10.6315C 6.80096 10.8673 6.85072 11.1595 6.71923 11.4334C 6.5757 11.7329 6.25361 11.9298 5.93762 11.9086C 5.73751 11.8951 5.5814 11.7983 5.4429 11.6621C 4.91189 11.1411 4.37082 10.6294 3.85095 10.0986C 3.69915 9.9441 3.62658 9.97353 3.49275 10.1077C 2.95868 10.6441 2.41582 11.172 1.8699 11.697C 1.62469 11.9328 1.33296 11.9756 1.04841 11.8407C 0.74608 11.6981 0.553868 11.3969 0.568598 11.094C 0.579017 10.8898 0.682129 10.7331 0.826199 10.5933C 1.52266 9.91554 2.21696 9.23565 2.91144 8.55628C 2.95761 8.51125 3.00036 8.46343 3.06736 8.39335C 2.12013 8.29682 1.26595 8.06943 0.534646 7.51182C 0.443749 7.44244 0.350158 7.37552 0.267524 7.29774C -0.0527704 6.99799 -0.0849257 6.65446 0.168184 6.30093C 0.385008 5.99821 0.748595 5.91727 1.12673 6.09123C 1.20003 6.12469 1.26973 6.16709 1.33655 6.21193C 2.69929 7.12518 4.57147 7.15023 5.9396 6.25275C 6.07505 6.15185 6.22001 6.06881 6.38798 6.02694C 6.7142 5.94495 7.01886 6.06215 7.19383 6.3407C 7.39413 6.65901 7.39179 6.96944 7.14515 7.21663Z"/>
</defs>
</svg>
