<svg width="21" height="20" viewBox="0 0 21 20" version="1.1" xmlns="http://www.w3.org/2000/svg" xmlns:xlink="http://www.w3.org/1999/xlink">
<title>icon</title>
<desc>Created using Figma</desc>
<g id="Canvas" transform="translate(27120 -1172)">
<rect x="-27120" y="1172" width="21" height="20" fill="#F1F5F9"/>
<clipPath id="clip-0" clip-rule="evenodd">
<path d="M -27944 0L -26024 0L -26024 4335L -27944 4335L -27944 0Z" fill="#FFFFFF"/>
</clipPath>
<g id="&#208;&#179;&#208;&#187;&#208;&#176;&#208;&#178;&#208;&#189;&#208;&#176;&#209;&#143; " clip-path="url(#clip-0)">
<path d="M -27944 0L -26024 0L -26024 4335L -27944 4335L -27944 0Z" fill="#F1F5F9"/>
<g id="&#209;&#130;&#208;&#181;&#208;&#187;&#208;&#181;&#209;&#132;&#208;&#190;&#208;&#189;&#209;&#139; &#209;&#129;&#208;&#187;&#209;&#131;&#208;&#182;&#208;&#177;">
<g id="Rectangle 61">
<use xlink:href="#path0_fill" transform="translate(-27945 660)" fill="#FFFFFF"/>
</g>
<clipPath id="clip-1" clip-rule="evenodd">
<path d="M -27184 1080L -26800 1080L -26800 1300L -27184 1300L -27184 1080Z" fill="#FFFFFF"/>
</clipPath>
<g id="crd" clip-path="url(#clip-1)">
<clipPath id="clip-2" clip-rule="evenodd">
<path d="M -27164 1100L -26800 1100L -26800 1280L -27164 1280L -27164 1100Z" fill="#FFFFFF"/>
</clipPath>
<g id="Frame 33" clip-path="url(#clip-2)">
<path d="M -27164 1100L -26800 1100L -26800 1280L -27164 1280L -27164 1100Z" fill="#FFFFFF"/>
<g id="Rectangle 3 Copy">
<use xlink:href="#path1_fill" transform="translate(-27164 1100)" fill="#FFFFFF"/>
<mask id="mask0_outline_ins">
<use xlink:href="#path1_fill" fill="white" transform="translate(-27164 1100)"/>
</mask>
<g mask="url(#mask0_outline_ins)">
<use xlink:href="#path2_stroke_2x" transform="translate(-27164 1100)" fill="#D8DCDE"/>
</g>
</g>
<g id="Group">
<g id="icon">
<g id="Oval 8">
<use xlink:href="#path3_fill" transform="translate(-27120 1172)" fill="#FF1B43"/>
<use xlink:href="#path3_fill" transform="translate(-27120 1172)" fill="#EF5937"/>
</g>
<g id="Vector">
<use xlink:href="#path4_fill" transform="translate(-27114 1178.67)" fill="#FFFFFF"/>
</g>
</g>
</g>
</g>
</g>
</g>
</g>
</g>
<defs>
<path id="path0_fill" d="M 0 0L 1924 0L 1924 901L 0 901L 0 0Z"/>
<path id="path1_fill" fill-rule="evenodd" d="M 0 4C 0 1.79086 1.79086 0 4 0L 360 0C 362.209 0 364 1.79086 364 4L 364 176C 364 178.209 362.209 180 360 180L 4 180C 1.79086 180 0 178.209 0 176L 0 4Z"/>
<path id="path2_stroke_2x" d="M 4 1L 360 1L 360 -1L 4 -1L 4 1ZM 363 4L 363 176L 365 176L 365 4L 363 4ZM 360 179L 4 179L 4 181L 360 181L 360 179ZM 1 176L 1 4L -1 4L -1 176L 1 176ZM 4 -1C 1.23858 -1 -1 1.23858 -1 4L 1 4C 1 2.34315 2.34315 1 4 1L 4 -1ZM 360 1C 361.657 1 363 2.34315 363 4L 365 4C 365 1.23858 362.761 -1 360 -1L 360 1ZM 363 176C 363 177.657 361.657 179 360 179L 360 181C 362.761 181 365 178.761 365 176L 363 176ZM 4 179C 2.34315 179 1 177.657 1 176L -1 176C -1 178.761 1.23858 181 4 181L 4 179Z"/>
<path id="path3_fill" fill-rule="evenodd" d="M 10.0806 20C 15.648 20 20.1612 15.5228 20.1612 10C 20.1612 4.47715 15.648 0 10.0806 0C 4.51325 0 0 4.47715 0 10C 0 15.5228 4.51325 20 10.0806 20Z"/>
<path id="path4_fill" d="M 7.8837 6.0263L 6.63827 4.84686C 6.3902 4.61291 5.9794 4.62001 5.72269 4.86318L 5.09523 5.45719C 5.05559 5.4365 5.01456 5.41489 4.97142 5.39197C 4.57518 5.18408 4.03287 4.89914 3.46221 4.35837C 2.88984 3.81647 2.58865 3.30216 2.36843 2.92673C 2.34519 2.88695 2.32293 2.8486 2.30094 2.81219L 2.72206 2.41402L 2.92909 2.21774C 3.1862 1.97422 3.19329 1.58534 2.9458 1.3507L 1.70036 0.17113C 1.45287 -0.0631742 1.04188 -0.0560661 0.78478 0.187452L 0.433773 0.521731L 0.443365 0.530747C 0.325668 0.672953 0.227317 0.836966 0.154126 1.01384C 0.0866591 1.18219 0.0446542 1.34285 0.0254473 1.50383C -0.139004 2.79479 0.484003 3.97462 2.17476 5.57564C 4.51191 7.78854 6.39534 7.62137 6.4766 7.61321C 6.65356 7.59318 6.82315 7.55314 6.99551 7.48976C 7.18067 7.42127 7.35376 7.32827 7.50385 7.21706L 7.51152 7.22351L 7.86711 6.8938C 8.12368 6.65032 8.13108 6.26131 7.8837 6.0263Z"/>
</defs>
</svg>
