<svg width="20" height="20" viewBox="0 0 20 20" version="1.1" xmlns="http://www.w3.org/2000/svg" xmlns:xlink="http://www.w3.org/1999/xlink">
<title>Vector</title>
<desc>Created using Figma</desc>
<g id="Canvas" transform="translate(26573 -104)">
<g id="Vector">
<use xlink:href="#path0_fill" transform="translate(-26572 105)" fill="#9FA3B0"/>
<use xlink:href="#path1_stroke" transform="translate(-26572 105)" fill="#999999"/>
<use xlink:href="#path1_stroke" transform="translate(-26572 105)" fill="#FFFFFF"/>
<use xlink:href="#path1_stroke" transform="translate(-26572 105)" fill="#9FA3B0"/>
</g>
</g>
<defs>
<path id="path0_fill" d="M 17.7263 16.3951L 13.289 11.9395C 14.4299 10.6301 15.055 8.98262 15.055 7.26749C 15.055 3.26026 11.6781 0 7.52752 0C 3.37691 0 8.89547e-09 3.26026 8.89547e-09 7.26749C 8.89547e-09 11.2747 3.37691 14.535 7.52752 14.535C 9.08571 14.535 10.5706 14.0812 11.8401 13.2199L 16.3111 17.7093C 16.498 17.8967 16.7494 18 17.0187 18C 17.2737 18 17.5156 17.9062 17.6992 17.7355C 18.0893 17.3731 18.1017 16.7721 17.7263 16.3951ZM 7.52752 1.89587C 10.5955 1.89587 13.0913 4.30552 13.0913 7.26749C 13.0913 10.2295 10.5955 12.6391 7.52752 12.6391C 4.45956 12.6391 1.9637 10.2295 1.9637 7.26749C 1.9637 4.30552 4.45956 1.89587 7.52752 1.89587Z"/>
<path id="path1_stroke" d="M 17.7263 16.3951L 18.0806 16.0423L 18.0806 16.0423L 17.7263 16.3951ZM 13.289 11.9395L 12.912 11.6111L 12.606 11.9623L 12.9347 12.2924L 13.289 11.9395ZM 11.8401 13.2199L 12.1944 12.8671L 11.9021 12.5736L 11.5594 12.8061L 11.8401 13.2199ZM 16.3111 17.7093L 15.9569 18.0621L 15.9571 18.0624L 16.3111 17.7093ZM 17.6992 17.7355L 17.3588 17.3692L 17.3588 17.3693L 17.6992 17.7355ZM 18.0806 16.0423L 13.6433 11.5867L 12.9347 12.2924L 17.372 16.748L 18.0806 16.0423ZM 13.666 12.268C 14.8589 10.8871 15.5468 9.07279 15.555 7.26749L 14.555 7.26749C 14.5632 8.89246 14.001 10.3732 12.912 11.6111L 13.666 12.268ZM 15.555 7.26749C 15.555 2.9677 11.9376 -0.5 7.52752 -0.5L 7.52752 0.5C 11.4187 0.5 14.555 3.55282 14.555 7.26749L 15.555 7.26749ZM 7.52752 -0.5C 3.11748 -0.5 -0.5 2.9677 -0.5 7.26749L 0.5 7.26749C 0.5 3.55282 3.63634 0.5 7.52752 0.5L 7.52752 -0.5ZM -0.5 7.26749C -0.5 11.5673 3.11748 15.035 7.52752 15.035L 7.52752 14.035C 3.63634 14.035 0.5 10.9822 0.5 7.26749L -0.5 7.26749ZM 7.52752 15.035C 9.15958 15.0295 10.7864 14.5323 12.1209 13.6336L 11.5594 12.8061C 10.3548 13.6302 9.01184 14.0405 7.52752 14.035L 7.52752 15.035ZM 11.4859 13.5727L 15.9569 18.0621L 16.6654 17.3565L 12.1944 12.8671L 11.4859 13.5727ZM 15.9571 18.0624C 16.2396 18.3456 16.6191 18.5 17.0187 18.5L 17.0187 17.5C 16.8797 17.5 16.7565 17.4478 16.6652 17.3562L 15.9571 18.0624ZM 17.0187 18.5C 17.3657 18.4915 17.7809 18.3299 18.0395 18.1018L 17.3588 17.3693C 17.2502 17.4824 17.1817 17.5085 17.0187 17.5L 17.0187 18.5ZM 18.0395 18.1018C 18.6362 17.5475 18.6563 16.6204 18.0806 16.0423L 17.372 16.748C 17.5471 16.9238 17.5424 17.1987 17.3588 17.3692L 18.0395 18.1018ZM 7.52752 2.39587C 10.336 2.39587 12.5913 4.59808 12.5913 7.26749L 13.5913 7.26749C 13.5913 4.01295 10.8549 1.39587 7.52752 1.39587L 7.52752 2.39587ZM 12.5913 7.26749C 12.5913 9.93691 10.336 12.1391 7.52752 12.1391L 7.52752 13.1391C 10.8549 13.1391 13.5913 10.522 13.5913 7.26749L 12.5913 7.26749ZM 7.52752 12.1391C 4.71899 12.1391 2.4637 9.93691 2.4637 7.26749L 1.4637 7.26749C 1.4637 10.522 4.20013 13.1391 7.52752 13.1391L 7.52752 12.1391ZM 2.4637 7.26749C 2.4637 4.59808 4.71899 2.39587 7.52752 2.39587L 7.52752 1.39587C 4.20013 1.39587 1.4637 4.01295 1.4637 7.26749L 2.4637 7.26749Z"/>
</defs>
</svg>
