<svg width="8" height="7" viewBox="0 0 8 7" version="1.1" xmlns="http://www.w3.org/2000/svg" xmlns:xlink="http://www.w3.org/1999/xlink">
<title>Vector</title>
<desc>Created using Figma</desc>
<g id="Canvas" transform="translate(58837 -3035)">
<g id="Vector">
<use xlink:href="#path0_fill" transform="translate(-58837 3035)" fill="#FFFFFF"/>
<mask id="mask0_outline_ins">
<use xlink:href="#path0_fill" fill="white" transform="translate(-58837 3035)"/>
</mask>
<g mask="url(#mask0_outline_ins)">
<use xlink:href="#path1_stroke_2x" transform="translate(-58837 3035)" fill="#FFFFFF"/>
</g>
</g>
</g>
<defs>
<path id="path0_fill" d="M 7.82638 3.1724C 7.98385 3.03224 8.03944 2.82654 7.97152 2.63532C 7.90344 2.44411 7.7261 2.30761 7.50824 2.27864L 5.57118 2.02159C 5.48868 2.01062 5.41739 1.96336 5.38055 1.89504L 4.51454 0.292017C 4.4173 0.11192 4.21995 7.39476e-09 4 7.39476e-09C 3.78021 7.39476e-09 3.58286 0.11192 3.48562 0.292017L 2.61945 1.89504C 2.58261 1.96336 2.51116 2.01062 2.42866 2.02159L 0.491601 2.27879C 0.273898 2.30761 0.0965635 2.44411 0.0284812 2.63532C -0.0394409 2.82654 0.0161463 3.03224 0.173617 3.1724L 1.57515 4.42005C 1.6349 4.47331 1.6623 4.54997 1.6482 4.62488L 1.3174 6.38678C 1.28023 6.58473 1.36754 6.78092 1.54551 6.89913C 1.72333 7.01749 1.95481 7.03285 2.14976 6.93907L 3.8821 6.1072C 3.95595 6.0718 4.04405 6.0718 4.1179 6.1072L 5.8504 6.93907C 5.93498 6.97974 6.02661 6.99978 6.11776 6.99978C 6.23614 6.99978 6.35404 6.96599 6.45465 6.89913C 6.63262 6.78092 6.71993 6.58473 6.68276 6.38678L 6.3518 4.62502C 6.3377 4.54997 6.3651 4.47345 6.42485 4.4202L 7.82638 3.1724Z"/>
<path id="path1_stroke_2x" d="M 6.03622 4.67447L 6.52763 4.5822L 6.52759 4.58195L 6.03622 4.67447ZM 6.36702 6.43623L 5.87561 6.5285L 5.87562 6.52857L 6.36702 6.43623ZM 6.26626 6.66256L 6.54189 7.07973L 6.5428 7.07912L 6.26626 6.66256ZM 5.99954 6.68026L 5.78308 7.13098L 5.78467 7.13174L 5.99954 6.68026ZM 4.26704 5.84825L 4.4835 5.39753L 4.48288 5.39723L 4.26704 5.84825ZM 0.397247 2.96289L 0.0647294 3.3363L 0.0647891 3.33635L 0.397247 2.96289ZM 0.333169 2.72574L 0.803988 2.89406L 0.804356 2.89302L 0.333169 2.72574ZM 0.537576 2.56817L 0.471797 2.07252L 0.471429 2.07257L 0.537576 2.56817ZM 2.47448 2.31112L 2.40892 1.81544L 2.4087 1.81547L 2.47448 2.31112ZM 2.90652 2.02452L 2.46663 1.78683L 2.46642 1.78722L 2.90652 2.02452ZM 3.77269 0.421494L 4.21258 0.659182L 4.21272 0.658913L 3.77269 0.421494ZM 4.22715 0.421494L 4.66705 0.183806L 4.66683 0.1834L 4.22715 0.421494ZM 5.09332 2.02452L 5.53342 1.78722L 5.53321 1.78683L 5.09332 2.02452ZM 5.5252 2.31112L 5.59098 1.81547L 5.59076 1.81544L 5.5252 2.31112ZM 7.46226 2.56817L 7.52841 2.07257L 7.52804 2.07252L 7.46226 2.56817ZM 7.66667 2.72574L 7.19548 2.89302L 7.19557 2.89327L 7.66667 2.72574ZM 7.60259 2.96289L 7.93505 3.33635L 7.93511 3.3363L 7.60259 2.96289ZM 6.20106 4.21055L 5.8686 3.83709L 5.86853 3.83715L 6.20106 4.21055ZM 5.54481 4.76674L 5.87561 6.5285L 6.85843 6.34396L 6.52763 4.5822L 5.54481 4.76674ZM 5.87562 6.52857C 5.86551 6.47479 5.87134 6.4149 5.89599 6.35951C 5.92026 6.30497 5.95676 6.26787 5.98972 6.246L 6.5428 7.07912C 6.77694 6.92368 6.91496 6.6448 6.85842 6.34389L 5.87562 6.52857ZM 5.99063 6.24539C 6.05944 6.19993 6.14628 6.19636 6.2144 6.22878L 5.78467 7.13174C 6.02741 7.24726 6.3132 7.23082 6.54189 7.07973L 5.99063 6.24539ZM 6.21599 6.22954L 4.4835 5.39753L 4.05059 6.29897L 5.78308 7.13098L 6.21599 6.22954ZM 4.48288 5.39723C 4.34619 5.33549 4.14556 5.29103 4 5.28812L 4 6.28812C 4.0377 6.2852 4.02097 6.28113 4.05121 6.29926L 4.48288 5.39723ZM 4 5.28812C 3.85435 5.29104 3.65372 5.33557 3.51682 5.39752L 3.9491 6.29926C 3.97943 6.28104 3.96239 6.28519 4 6.28812L 4 5.28812ZM 2.1314 3.83724L 0.729705 2.58943L 0.0647891 3.33635L 1.46648 4.58416L 2.1314 3.83724ZM 0.729764 2.58949C 0.761375 2.61764 0.793635 2.66213 0.809906 2.7223C 0.826378 2.78321 0.821918 2.8439 0.803987 2.89406L -0.137648 2.55742C -0.240633 2.84549 -0.149517 3.14551 0.0647294 3.3363L 0.729764 2.58949ZM 0.804356 2.89302C 0.76573 3.00182 0.672593 3.05459 0.603724 3.06378L 0.471429 2.07257C 0.207444 2.1078 -0.0385176 2.27819 -0.138018 2.55846L 0.804356 2.89302ZM 0.603356 3.06383L 2.54026 2.80678L 2.4087 1.81547L 0.471797 2.07252L 0.603356 3.06383ZM 2.54003 2.8068C 2.87221 2.76287 3.18061 2.5697 3.34662 2.26182L 2.46642 1.78722C 2.46551 1.78891 2.45063 1.80992 2.40892 1.81544L 2.54003 2.8068ZM 3.34641 2.2622L 4.21258 0.659182L 3.33279 0.183806L 2.46663 1.78683L 3.34641 2.2622ZM 4.21272 0.658913C 4.16099 0.754797 4.06755 0.792602 3.99984 0.792602L 3.99984 -0.207398C 3.73509 -0.207398 3.47153 -0.0733253 3.33265 0.184075L 4.21272 0.658913ZM 3.99984 0.792602C 3.93194 0.792602 3.83892 0.754572 3.78748 0.659588L 4.66683 0.1834C 4.52792 -0.0731009 4.26509 -0.207398 3.99984 -0.207398L 3.99984 0.792602ZM 3.78726 0.659182L 4.65343 2.2622L 5.53321 1.78683L 4.66705 0.183806L 3.78726 0.659182ZM 4.65322 2.26182C 4.81915 2.56954 5.12728 2.76285 5.45965 2.8068L 5.59076 1.81544C 5.54924 1.80995 5.53442 1.78906 5.53342 1.78722L 4.65322 2.26182ZM 5.45943 2.80678L 7.39649 3.06383L 7.52804 2.07252L 5.59098 1.81547L 5.45943 2.80678ZM 7.39612 3.06378C 7.32725 3.05459 7.23411 3.00182 7.19548 2.89302L 8.13786 2.55846C 8.03836 2.27819 7.79239 2.1078 7.52841 2.07257L 7.39612 3.06378ZM 7.19557 2.89327C 7.1779 2.84357 7.17342 2.78326 7.18981 2.72252C 7.20604 2.66243 7.23827 2.61781 7.27008 2.58949L 7.93511 3.3363C 8.14992 3.14501 8.23981 2.84515 8.13777 2.5582L 7.19557 2.89327ZM 7.27014 2.58943L 5.8686 3.83709L 6.53352 4.58401L 7.93505 3.33635L 7.27014 2.58943ZM 5.86853 3.83715C 5.6098 4.06757 5.47854 4.41479 5.54486 4.767L 6.52759 4.58195C 6.52828 4.58563 6.52773 4.5894 6.52705 4.59131C 6.52646 4.59298 6.52706 4.58976 6.53359 4.58395L 5.86853 3.83715ZM 7.82638 3.1724L 7.16153 2.42542L 7.16143 2.42552L 7.82638 3.1724ZM 7.97152 2.63532L 8.91384 2.3006L 8.91359 2.2999L 7.97152 2.63532ZM 7.50824 2.27864L 7.64004 1.28737L 7.63979 1.28733L 7.50824 2.27864ZM 5.57118 2.02159L 5.43934 3.01286L 5.43963 3.0129L 5.57118 2.02159ZM 5.38055 1.89504L 6.26072 1.42039L 6.26037 1.41973L 5.38055 1.89504ZM 4.51454 0.292017L 3.63461 0.76711L 3.63472 0.767326L 4.51454 0.292017ZM 3.48562 0.292017L 4.3654 0.767393L 4.36555 0.76711L 3.48562 0.292017ZM 2.61945 1.89504L 1.73967 1.41966L 1.73928 1.42039L 2.61945 1.89504ZM 2.42866 2.02159L 2.56028 3.01289L 2.5605 3.01286L 2.42866 2.02159ZM 0.491601 2.27879L 0.622844 3.27014L 0.623223 3.27009L 0.491601 2.27879ZM 0.0284812 2.63532L -0.913587 2.2999L -0.913836 2.3006L 0.0284812 2.63532ZM 0.173617 3.1724L 0.838531 2.42548L 0.838465 2.42542L 0.173617 3.1724ZM 1.57515 4.42005L 2.24049 3.67352L 2.24006 3.67313L 1.57515 4.42005ZM 1.6482 4.62488L 0.66545 4.43993L 0.665371 4.44035L 1.6482 4.62488ZM 1.3174 6.38678L 2.30023 6.57131L 2.30023 6.57131L 1.3174 6.38678ZM 1.54551 6.89913L 2.09961 6.06668L 2.09879 6.06613L 1.54551 6.89913ZM 2.14976 6.93907L 1.71689 6.03762L 1.71628 6.03791L 2.14976 6.93907ZM 3.8821 6.1072L 3.44979 5.20547L 3.44922 5.20575L 3.8821 6.1072ZM 4.1179 6.1072L 4.55075 5.20573L 4.55021 5.20547L 4.1179 6.1072ZM 5.8504 6.93907L 6.28375 6.03785L 6.28324 6.0376L 5.8504 6.93907ZM 6.45465 6.89913L 5.90137 6.06613L 5.90114 6.06628L 6.45465 6.89913ZM 6.68276 6.38678L 7.66559 6.20225L 7.66557 6.20215L 6.68276 6.38678ZM 6.3518 4.62502L 5.36899 4.80962L 5.36899 4.80965L 6.3518 4.62502ZM 6.42485 4.4202L 5.75989 3.67332L 5.75951 3.67366L 6.42485 4.4202ZM 8.49123 3.91937C 8.9371 3.52253 9.1248 2.89451 8.91384 2.3006L 7.0292 2.97005C 6.95408 2.75857 7.03061 2.54195 7.16153 2.42542L 8.49123 3.91937ZM 8.91359 2.2999C 8.70722 1.72029 8.19109 1.36064 7.64004 1.28737L 7.37644 3.26992C 7.26111 3.25458 7.09966 3.16793 7.02945 2.97075L 8.91359 2.2999ZM 7.63979 1.28733L 5.70273 1.03028L 5.43963 3.0129L 7.37669 3.26995L 7.63979 1.28733ZM 5.70302 1.03032C 5.91064 1.05793 6.13257 1.18274 6.26072 1.42039L 4.50038 2.36969C 4.70222 2.74398 5.06672 2.9633 5.43934 3.01286L 5.70302 1.03032ZM 6.26037 1.41973L 5.39436 -0.183291L 3.63472 0.767326L 4.50073 2.37035L 6.26037 1.41973ZM 5.39448 -0.183076C 5.1069 -0.715703 4.55304 -1 4 -1L 4 1C 3.88685 1 3.72771 0.939544 3.63461 0.76711L 5.39448 -0.183076ZM 4 -1C 3.44697 -1 2.89319 -0.715575 2.60568 -0.183076L 4.36555 0.76711C 4.27252 0.939416 4.11346 1 4 1L 4 -1ZM 2.60584 -0.183359L 1.73967 1.41966L 3.49923 2.37042L 4.3654 0.767393L 2.60584 -0.183359ZM 1.73928 1.42039C 1.86782 1.18203 2.09007 1.05782 2.29682 1.03032L 2.5605 3.01286C 2.93225 2.96342 3.29739 2.7447 3.49962 2.36969L 1.73928 1.42039ZM 2.29704 1.03029L 0.359979 1.28749L 0.623223 3.27009L 2.56028 3.01289L 2.29704 1.03029ZM 0.360358 1.28744C -0.191171 1.36045 -0.707277 1.72046 -0.913587 2.2999L 0.970549 2.97075C 0.900404 3.16776 0.738966 3.25477 0.622844 3.27014L 0.360358 1.28744ZM -0.913836 2.3006C -1.1248 2.8945 -0.937101 3.52253 -0.491232 3.91937L 0.838465 2.42542C 0.969394 2.54195 1.04592 2.75858 0.970798 2.97005L -0.913836 2.3006ZM -0.491298 3.91932L 0.910236 5.16697L 2.24006 3.67313L 0.838531 2.42548L -0.491298 3.91932ZM 0.909805 5.16659C 0.724326 5.00128 0.610673 4.73099 0.66545 4.43993L 2.63095 4.80982C 2.71392 4.36895 2.54548 3.94533 2.24049 3.67352L 0.909805 5.16659ZM 0.665371 4.44035L 0.334571 6.20225L 2.30023 6.57131L 2.63103 4.8094L 0.665371 4.44035ZM 0.334571 6.20225C 0.217674 6.82486 0.505962 7.40914 0.992236 7.73212L 2.09879 6.06613C 2.22912 6.15269 2.34279 6.34459 2.30023 6.57131L 0.334571 6.20225ZM 0.991415 7.73158C 1.46751 8.04848 2.07475 8.08483 2.58325 7.84023L 1.71628 6.03791C 1.83486 5.98087 1.97915 5.98649 2.09961 6.06668L 0.991415 7.73158ZM 2.58264 7.84052L 4.31498 7.00865L 3.44922 5.20575L 1.71689 6.03762L 2.58264 7.84052ZM 4.3144 7.00893C 4.11494 7.10455 3.88506 7.10455 3.68559 7.00893L 4.55021 5.20547C 4.20305 5.03904 3.79695 5.03904 3.44979 5.20547L 4.3144 7.00893ZM 3.68506 7.00867L 5.41755 7.84054L 6.28324 6.0376L 4.55075 5.20573L 3.68506 7.00867ZM 5.41704 7.84029C 5.60925 7.92521 5.91915 7.99399 6.11776 7.99978L 6.11776 5.99978C 6.17274 5.99978 6.22965 6.01183 6.28375 6.03785L 5.41704 7.84029ZM 6.11776 7.99978C 6.37527 7.99006 6.77351 7.87376 7.00815 7.73197L 5.90114 6.06628C 5.97126 6.01968 6.04742 5.99978 6.11776 5.99978L 6.11776 7.99978ZM 7.00792 7.73212C 7.4942 7.40914 7.78249 6.82487 7.66559 6.20225L 5.69993 6.57131C 5.65737 6.34459 5.77104 6.15269 5.90137 6.06613L 7.00792 7.73212ZM 7.66557 6.20215L 7.33461 4.44039L 5.36899 4.80965L 5.69995 6.57141L 7.66557 6.20215ZM 7.33462 4.44042C 7.38924 4.73122 7.2756 5.0015 7.09019 5.16674L 5.75951 3.67366C 5.4546 3.94541 5.28617 4.36872 5.36899 4.80962L 7.33462 4.44042ZM 7.08981 5.16708L 8.49134 3.91928L 7.16143 2.42552L 5.75989 3.67332L 7.08981 5.16708Z"/>
</defs>
</svg>
