<svg width="25" height="25" viewBox="0 0 25 25" version="1.1" xmlns="http://www.w3.org/2000/svg" xmlns:xlink="http://www.w3.org/1999/xlink">
<title>&#208;&#161;&#208;&#190;&#208;&#178;&#208;&#181;&#209;&#130; &#208;&#178;&#208;&#176;&#209;&#136;&#208;&#181;&#208;&#179;&#208;&#190; &#208;&#180;&#208;&#190;&#208;&#188;&#208;&#176;</title>
<desc>Created using Figma</desc>
<g id="Canvas" transform="translate(-357 -4855)">
<g id="&#208;&#161;&#208;&#190;&#208;&#178;&#208;&#181;&#209;&#130; &#208;&#178;&#208;&#176;&#209;&#136;&#208;&#181;&#208;&#179;&#208;&#190; &#208;&#180;&#208;&#190;&#208;&#188;&#208;&#176;">
<use xlink:href="#path0_fill" transform="translate(357 4855)" fill="#008D21"/>
<mask id="mask0_outline_ins">
<use xlink:href="#path0_fill" fill="white" transform="translate(357 4855)"/>
</mask>
<g mask="url(#mask0_outline_ins)">
<use xlink:href="#path1_stroke_2x" transform="translate(357 4855)" fill="#008D21"/>
</g>
</g>
</g>
<defs>
<path id="path0_fill" d="M 23.8768 0L 4.11575 0C 3.4972 0 2.99321 0.511826 2.99321 1.13937L 2.99321 3.05697L 1.12253 3.05697C 0.503982 3.05697 0 3.56879 0 4.19697L 0 19.464C 0 20.0916 0.503982 20.604 1.12253 20.604L 5.88563 20.604L 4.00556 23.8549C 3.82651 24.1658 3.80397 24.4449 3.93732 24.6808C 4.05001 24.8792 4.25661 25 4.49139 25C 4.64101 25 4.79816 24.9517 4.97095 24.8531L 12.4073 20.604L 20.8849 20.604C 21.5028 20.604 22.0074 20.0916 22.0074 19.464L 22.0074 17.5458L 23.8775 17.5458C 24.496 17.5458 25 17.0346 25 16.4064L 25 1.13937C 24.9994 0.511826 24.4954 0 23.8768 0ZM 20.8836 19.464L 12.259 19.464C 12.1638 19.464 12.0686 19.4888 11.9841 19.5371L 5.74164 23.1027L 7.35 20.3204C 7.45142 20.1437 7.45204 19.925 7.3525 19.7508C 7.25358 19.5734 7.06639 19.4627 6.86605 19.4627L 1.12253 19.4627L 1.12316 4.19634L 20.883 4.19634L 20.8836 19.464ZM 23.8775 16.4064L 22.0074 16.4064L 22.0074 4.19697C 22.0074 3.56879 21.5028 3.05697 20.8849 3.05697L 4.117 3.05697L 4.117 1.13937L 23.8775 1.13937L 23.8775 16.4064L 23.8775 16.4064Z"/>
<path id="path1_stroke_2x" d="M 2.99321 3.05697L 2.99321 5.05697L 4.99321 5.05697L 4.99321 3.05697L 2.99321 3.05697ZM 5.88563 20.604L 7.61695 21.6053L 9.35266 18.604L 5.88563 18.604L 5.88563 20.604ZM 4.00556 23.8549L 2.27424 22.8536L 2.27242 22.8568L 4.00556 23.8549ZM 3.93732 24.6808L 2.19627 25.6651L 2.19833 25.6687L 3.93732 24.6808ZM 4.97095 24.8531L 5.9618 26.5904L 5.96318 26.5896L 4.97095 24.8531ZM 12.4073 20.604L 12.4073 18.604L 11.8762 18.604L 11.4151 18.8675L 12.4073 20.604ZM 22.0074 17.5458L 22.0074 15.5458L 20.0074 15.5458L 20.0074 17.5458L 22.0074 17.5458ZM 25 1.13937L 27 1.13937L 27 1.13737L 25 1.13937ZM 20.8836 19.464L 20.8836 21.464L 22.8837 21.464L 22.8836 19.4639L 20.8836 19.464ZM 11.9841 19.5371L 12.9761 21.2738L 12.9768 21.2734L 11.9841 19.5371ZM 5.74164 23.1027L 4.01012 22.1018L 0.304974 28.5113L 6.73359 24.8394L 5.74164 23.1027ZM 7.35 20.3204L 9.08152 21.3214L 9.0847 21.3158L 7.35 20.3204ZM 7.3525 19.7508L 5.60572 20.7248L 5.61081 20.7339L 5.61599 20.743L 7.3525 19.7508ZM 1.12253 19.4627L -0.877467 19.4627L -0.877549 21.4627L 1.12253 21.4627L 1.12253 19.4627ZM 1.12316 4.19634L 1.12316 2.19634L -0.876759 2.19634L -0.876841 4.19626L 1.12316 4.19634ZM 20.883 4.19634L 22.883 4.19626L 22.8829 2.19634L 20.883 2.19634L 20.883 4.19634ZM 22.0074 16.4064L 20.0074 16.4064L 20.0074 18.4064L 22.0074 18.4064L 22.0074 16.4064ZM 4.117 3.05697L 2.117 3.05697L 2.117 5.05697L 4.117 5.05697L 4.117 3.05697ZM 4.117 1.13937L 4.117 -0.860631L 2.117 -0.860631L 2.117 1.13937L 4.117 1.13937ZM 23.8775 1.13937L 25.8775 1.13937L 25.8775 -0.860631L 23.8775 -0.860631L 23.8775 1.13937ZM 23.8768 -2L 4.11575 -2L 4.11575 2L 23.8768 2L 23.8768 -2ZM 4.11575 -2C 2.36434 -2 0.993214 -0.564241 0.993214 1.13937L 4.99321 1.13937C 4.99321 1.58789 4.63005 2 4.11575 2L 4.11575 -2ZM 0.993214 1.13937L 0.993214 3.05697L 4.99321 3.05697L 4.99321 1.13937L 0.993214 1.13937ZM 2.99321 1.05697L 1.12253 1.05697L 1.12253 5.05697L 2.99321 5.05697L 2.99321 1.05697ZM 1.12253 1.05697C -0.629597 1.05697 -2 2.49346 -2 4.19697L 2 4.19697C 2 4.64413 1.63756 5.05697 1.12253 5.05697L 1.12253 1.05697ZM -2 4.19697L -2 19.464L 2 19.464L 2 4.19697L -2 4.19697ZM -2 19.464C -2 21.1662 -0.630317 22.604 1.12253 22.604L 1.12253 18.604C 1.63828 18.604 2 19.017 2 19.464L -2 19.464ZM 1.12253 22.604L 5.88563 22.604L 5.88563 18.604L 1.12253 18.604L 1.12253 22.604ZM 4.15431 19.6028L 2.27424 22.8536L 5.73688 24.8562L 7.61695 21.6053L 4.15431 19.6028ZM 2.27242 22.8568C 1.86791 23.5592 1.60519 24.6195 2.19627 25.6651L 5.67836 23.6966C 5.8142 23.9368 5.86813 24.2095 5.84757 24.4598C 5.82893 24.6867 5.75599 24.823 5.7387 24.853L 2.27242 22.8568ZM 2.19833 25.6687C 2.67052 26.4999 3.54542 27 4.49139 27L 4.49139 23C 4.9678 23 5.4295 23.2585 5.67631 23.6929L 2.19833 25.6687ZM 4.49139 27C 4.93823 26.9778 5.5923 26.7873 5.9618 26.5904L 3.9801 23.1158C 4.01075 23.0983 4.19549 23 4.49139 23L 4.49139 27ZM 5.96318 26.5896L 13.3996 22.3405L 11.4151 18.8675L 3.97872 23.1166L 5.96318 26.5896ZM 12.4073 22.604L 20.8849 22.604L 20.8849 18.604L 12.4073 18.604L 12.4073 22.604ZM 20.8849 22.604C 22.6364 22.604 24.0074 21.1669 24.0074 19.464L 20.0074 19.464C 20.0074 19.0162 20.3692 18.604 20.8849 18.604L 20.8849 22.604ZM 24.0074 19.464L 24.0074 17.5458L 20.0074 17.5458L 20.0074 19.464L 24.0074 19.464ZM 22.0074 19.5458L 23.8775 19.5458L 23.8775 15.5458L 22.0074 15.5458L 22.0074 19.5458ZM 23.8775 19.5458C 25.6282 19.5458 27 18.1114 27 16.4064L 23 16.4064C 23 15.9578 23.3639 15.5458 23.8775 15.5458L 23.8775 19.5458ZM 27 16.4064L 27 1.13937L 23 1.13937L 23 16.4064L 27 16.4064ZM 27 1.13737C 26.9983 -0.564307 25.6286 -2 23.8768 -2L 23.8768 2C 23.3622 2 23.0004 1.58796 23 1.14136L 27 1.13737ZM 20.8836 17.464L 12.259 17.464L 12.259 21.464L 20.8836 21.464L 20.8836 17.464ZM 12.259 17.464C 11.9096 17.4802 11.3136 17.6368 10.9915 17.8009L 12.9768 21.2734C 12.7567 21.3992 12.5093 21.464 12.259 21.464L 12.259 17.464ZM 10.9922 17.8005L 4.74968 21.3661L 6.73359 24.8394L 12.9761 21.2738L 10.9922 17.8005ZM 7.47315 24.1037L 9.08151 21.3214L 5.61848 19.3195L 4.01012 22.1018L 7.47315 24.1037ZM 9.0847 21.3158C 9.5345 20.5319 9.54518 19.5569 9.08901 18.7585L 5.61599 20.743C 5.35891 20.2931 5.36833 19.7554 5.61529 19.3251L 9.0847 21.3158ZM 9.09927 18.7767C 8.65215 17.9749 7.80176 17.4627 6.86605 17.4627L 6.86605 21.4627C 6.33102 21.4627 5.85502 21.1719 5.60572 20.7248L 9.09927 18.7767ZM 6.86605 17.4627L 1.12253 17.4627L 1.12253 21.4627L 6.86605 21.4627L 6.86605 17.4627ZM 3.12253 19.4628L 3.12316 4.19642L -0.876841 4.19626L -0.877467 19.4627L 3.12253 19.4628ZM 1.12316 6.19634L 20.883 6.19634L 20.883 2.19634L 1.12316 2.19634L 1.12316 6.19634ZM 18.883 4.19642L 18.8836 19.4641L 22.8836 19.4639L 22.883 4.19626L 18.883 4.19642ZM 23.8775 14.4064L 22.0074 14.4064L 22.0074 18.4064L 23.8775 18.4064L 23.8775 14.4064ZM 24.0074 16.4064L 24.0074 4.19697L 20.0074 4.19697L 20.0074 16.4064L 24.0074 16.4064ZM 24.0074 4.19697C 24.0074 2.49273 22.6357 1.05697 20.8849 1.05697L 20.8849 5.05697C 20.3699 5.05697 20.0074 4.64486 20.0074 4.19697L 24.0074 4.19697ZM 20.8849 1.05697L 4.117 1.05697L 4.117 5.05697L 20.8849 5.05697L 20.8849 1.05697ZM 6.117 3.05697L 6.117 1.13937L 2.117 1.13937L 2.117 3.05697L 6.117 3.05697ZM 4.117 3.13937L 23.8775 3.13937L 23.8775 -0.860631L 4.117 -0.860631L 4.117 3.13937ZM 21.8775 1.13937L 21.8775 16.4064L 25.8775 16.4064L 25.8775 1.13937L 21.8775 1.13937Z"/>
</defs>
</svg>
