<svg width="17" height="27" viewBox="0 0 17 27" version="1.1" xmlns="http://www.w3.org/2000/svg" xmlns:xlink="http://www.w3.org/1999/xlink">
<title>&#208;&#162;&#208;&#176;&#209;&#128;&#208;&#184;&#209;&#132;&#209;&#139;</title>
<desc>Created using Figma</desc>
<g id="Canvas" transform="translate(-408 -4853)">
<rect x="408" y="4853" width="17" height="27" fill="#F1F5F9"/>
<g id="&#208;&#162;&#208;&#176;&#209;&#128;&#208;&#184;&#209;&#132;&#209;&#139;">
<mask id="mask0_outline_ins">
<use xlink:href="#path0_fill" fill="white" transform="matrix(-1 0 0 1 425 4853)"/>
</mask>
<g mask="url(#mask0_outline_ins)">
<use xlink:href="#path1_stroke_2x" transform="matrix(-1 0 0 1 425 4853)" fill="#008D21"/>
</g>
</g>
</g>
<defs>
<path id="path0_fill" d="M 7.98624 0.320297L 1.12372 13.2485C -0.318366 15.9817 -0.429747 19.4571 1.12372 22.3836C 3.45898 26.783 8.65368 28.3044 12.7264 25.7818C 16.7991 23.2592 18.2076 17.6479 15.8723 13.2485L 9.00977 0.320297C 8.78308 -0.106766 8.2129 -0.106766 7.98624 0.320297Z"/>
<path id="path1_stroke_2x" d="M 7.98624 0.320297L 8.86952 0.789154L 8.86955 0.789096L 7.98624 0.320297ZM 1.12372 13.2485L 0.240445 12.7797L 0.23928 12.7819L 1.12372 13.2485ZM 1.12372 22.3836L 2.007 21.9148L 2.00699 21.9148L 1.12372 22.3836ZM 12.7264 25.7818L 12.1998 24.9317L 12.1998 24.9317L 12.7264 25.7818ZM 15.8723 13.2485L 16.7556 12.7796L 16.7556 12.7796L 15.8723 13.2485ZM 9.00977 0.320297L 8.12649 0.789144L 8.12649 0.789155L 9.00977 0.320297ZM 7.10297 -0.14856L 0.240448 12.7797L 2.007 13.7174L 8.86952 0.789154L 7.10297 -0.14856ZM 0.23928 12.7819C -1.35013 15.7943 -1.4753 19.6202 0.240449 22.8525L 2.00699 21.9148C 0.61581 19.2939 0.713401 16.1691 2.00816 13.7152L 0.23928 12.7819ZM 0.240449 22.8525C 2.82771 27.7266 8.65431 29.4803 13.2529 26.632L 12.1998 24.9317C 8.65304 27.1285 4.09026 25.8394 2.007 21.9148L 0.240449 22.8525ZM 13.2529 26.632C 17.8012 23.8148 19.322 17.6144 16.7556 12.7796L 14.989 13.7173C 17.0932 17.6814 15.797 22.7037 12.1998 24.9317L 13.2529 26.632ZM 16.7556 12.7796L 9.89304 -0.148561L 8.12649 0.789155L 14.989 13.7173L 16.7556 12.7796ZM 9.89304 -0.148549C 9.29047 -1.28377 7.70552 -1.28388 7.10294 -0.148502L 8.86955 0.789096C 8.80903 0.903122 8.66803 1 8.49799 1C 8.32797 1 8.18699 0.903131 8.12649 0.789144L 9.89304 -0.148549Z"/>
</defs>
</svg>
