<svg width="52" height="52" viewBox="0 0 52 52" version="1.1" xmlns="http://www.w3.org/2000/svg" xmlns:xlink="http://www.w3.org/1999/xlink">
<title>Component</title>
<desc>Created using Figma</desc>
<g id="Canvas" transform="translate(58855 -1165)">
<g id="Component">
<g id="Rectangle 40">
<use xlink:href="#path0_fill" transform="translate(-58855 1165)" fill="#FFFFFF"/>
<mask id="mask0_outline_ins">
<use xlink:href="#path0_fill" fill="white" transform="translate(-58855 1165)"/>
</mask>
<g mask="url(#mask0_outline_ins)">
<use xlink:href="#path1_stroke_2x" transform="translate(-58855 1165)" fill="#D0D0D0"/>
</g>
</g>
<g id="&#208;&#162;&#208;&#176;&#209;&#128;&#208;&#184;&#209;&#132;&#209;&#139;">
<use xlink:href="#path2_fill" transform="matrix(-1 0 0 1 -58821 1177)" fill="#FFFFFF"/>
<mask id="mask1_outline_ins">
<use xlink:href="#path2_fill" fill="white" transform="matrix(-1 0 0 1 -58821 1177)"/>
</mask>
<g mask="url(#mask1_outline_ins)">
<use xlink:href="#path3_stroke_2x" transform="matrix(-1 0 0 1 -58821 1177)" fill="#008D21"/>
</g>
</g>
</g>
</g>
<defs>
<path id="path0_fill" d="M 0 26C 0 11.6406 11.6406 0 26 0L 26 0C 40.3594 0 52 11.6406 52 26L 52 26C 52 40.3594 40.3594 52 26 52L 26 52C 11.6406 52 0 40.3594 0 26L 0 26Z"/>
<path id="path1_stroke_2x" d="M 26 -1C 11.0883 -1 -1 11.0883 -1 26L 1 26C 1 12.1929 12.1929 1 26 1L 26 -1ZM 26 1C 39.8071 1 51 12.1929 51 26L 53 26C 53 11.0883 40.9117 -1 26 -1L 26 1ZM 51 26C 51 39.8071 39.8071 51 26 51L 26 53C 40.9117 53 53 40.9117 53 26L 51 26ZM 26 51C 12.1929 51 1 39.8071 1 26L -1 26C -1 40.9117 11.0883 53 26 53L 26 51Z"/>
<path id="path2_fill" d="M 7.98624 0.320297L 1.12372 13.2485C -0.318366 15.9817 -0.429747 19.4571 1.12372 22.3836C 3.45898 26.783 8.65368 28.3044 12.7264 25.7818C 16.7991 23.2592 18.2076 17.6479 15.8723 13.2485L 9.00977 0.320297C 8.78308 -0.106766 8.2129 -0.106766 7.98624 0.320297Z"/>
<path id="path3_stroke_2x" d="M 7.98624 0.320297L 8.86952 0.789154L 8.86955 0.789096L 7.98624 0.320297ZM 1.12372 13.2485L 0.240445 12.7797L 0.23928 12.7819L 1.12372 13.2485ZM 1.12372 22.3836L 2.007 21.9148L 2.00699 21.9148L 1.12372 22.3836ZM 12.7264 25.7818L 12.1998 24.9317L 12.1998 24.9317L 12.7264 25.7818ZM 15.8723 13.2485L 16.7556 12.7796L 16.7556 12.7796L 15.8723 13.2485ZM 9.00977 0.320297L 8.12649 0.789144L 8.12649 0.789155L 9.00977 0.320297ZM 7.10297 -0.14856L 0.240448 12.7797L 2.007 13.7174L 8.86952 0.789154L 7.10297 -0.14856ZM 0.23928 12.7819C -1.35013 15.7943 -1.4753 19.6202 0.240449 22.8525L 2.00699 21.9148C 0.61581 19.2939 0.713401 16.1691 2.00816 13.7152L 0.23928 12.7819ZM 0.240449 22.8525C 2.82771 27.7266 8.65431 29.4803 13.2529 26.632L 12.1998 24.9317C 8.65304 27.1285 4.09026 25.8394 2.007 21.9148L 0.240449 22.8525ZM 13.2529 26.632C 17.8012 23.8148 19.322 17.6144 16.7556 12.7796L 14.989 13.7173C 17.0932 17.6814 15.797 22.7037 12.1998 24.9317L 13.2529 26.632ZM 16.7556 12.7796L 9.89304 -0.148561L 8.12649 0.789155L 14.989 13.7173L 16.7556 12.7796ZM 9.89304 -0.148549C 9.29047 -1.28377 7.70552 -1.28388 7.10294 -0.148502L 8.86955 0.789096C 8.80903 0.903122 8.66803 1 8.49799 1C 8.32797 1 8.18699 0.903131 8.12649 0.789144L 9.89304 -0.148549Z"/>
</defs>
</svg>
