<svg width="35" height="20" viewBox="0 0 35 20" version="1.1" xmlns="http://www.w3.org/2000/svg" xmlns:xlink="http://www.w3.org/1999/xlink">
<title>Vector</title>
<desc>Created using Figma</desc>
<g id="Canvas" transform="translate(26718 -30)">
<g id="Vector">
<use xlink:href="#path0_fill" transform="translate(-26718 30)" fill="#D8DCDE"/>
</g>
</g>
<defs>
<path id="path0_fill" fill-rule="evenodd" d="M 17.1241 19.9163L 19.2162 19.9163C 19.2162 19.9163 19.8482 19.8468 20.1708 19.4984C 20.4677 19.1786 20.4582 18.5779 20.4582 18.5779C 20.4582 18.5779 20.4174 15.7661 21.7202 15.352C 23.0046 14.9442 24.6538 18.0696 26.4019 19.2714C 27.7238 20.1809 28.7282 19.9815 28.7282 19.9815L 33.4023 19.9163C 33.4023 19.9163 35.8474 19.7654 34.688 17.8398C 34.593 17.6822 34.0128 16.4153 31.2128 13.8119C 28.2821 11.0872 28.6745 11.5279 32.2049 6.81471C 34.3549 3.94434 35.2145 2.19195 34.946 1.4414C 34.6899 0.72654 33.1086 0.915486 33.1086 0.915486L 27.8459 0.948326C 27.8459 0.948326 27.4558 0.895021 27.1664 1.06826C 26.8837 1.23817 26.7017 1.63415 26.7017 1.63415C 26.7017 1.63415 25.8688 3.85534 24.7579 5.74433C 22.4144 9.73029 21.4774 9.94065 21.0945 9.69317C 20.2036 9.11633 20.4259 7.37584 20.4259 6.13936C 20.4259 2.27666 21.0108 0.666097 19.287 0.249177C 18.7149 0.11068 18.2939 0.0193006 16.831 0.00454655C 14.9532 -0.0149668 13.3638 0.0102572 12.4639 0.451925C 11.8652 0.745578 11.4033 1.39999 11.6846 1.43759C 12.0324 1.48423 12.8202 1.65033 13.2379 2.22003C 13.7772 2.95487 13.7582 4.60542 13.7582 4.60542C 13.7582 4.60542 14.068 9.1525 13.0345 9.71744C 12.3251 10.1049 11.352 9.31385 9.26278 5.69769C 8.19227 3.84535 7.38404 1.79787 7.38404 1.79787C 7.38404 1.79787 7.22819 1.41522 6.95023 1.21057C 6.61287 0.962603 6.14153 0.8836 6.14153 0.8836L 1.14058 0.916438C 1.14058 0.916438 0.389845 0.93738 0.114258 1.26435C -0.130919 1.55514 0.094777 2.15673 0.094777 2.15673C 0.094777 2.15673 4.01001 11.3318 8.44315 15.9555C 12.5081 20.1947 17.1241 19.9163 17.1241 19.9163Z"/>
</defs>
</svg>
