<svg width="36" height="35" viewBox="0 0 36 35" version="1.1" xmlns="http://www.w3.org/2000/svg" xmlns:xlink="http://www.w3.org/1999/xlink">
<title>Icon : warnning</title>
<desc>Created using Figma</desc>
<g id="Canvas" transform="translate(60574 -488)">
<g id="Icon : warnning">
<g id="Oval">
<mask id="mask0_outline_ins">
<use xlink:href="#path0_fill" fill="white" transform="translate(-60573.2 488)"/>
</mask>
<g mask="url(#mask0_outline_ins)">
<use xlink:href="#path1_stroke_2x" transform="translate(-60573.2 488)" fill="#008D21"/>
</g>
</g>
<g id="!">
<use xlink:href="#path2_fill" transform="translate(-60557 499)" fill="#008D21"/>
</g>
</g>
</g>
<defs>
<path id="path0_fill" fill-rule="evenodd" d="M 17.5 35C 27.165 35 35 27.165 35 17.5C 35 7.83502 27.165 0 17.5 0C 7.83502 0 0 7.83502 0 17.5C 0 27.165 7.83502 35 17.5 35Z"/>
<path id="path1_stroke_2x" d="M 17.5 36C 27.7173 36 36 27.7173 36 17.5L 34 17.5C 34 26.6127 26.6127 34 17.5 34L 17.5 36ZM 36 17.5C 36 7.28273 27.7173 -1 17.5 -1L 17.5 1C 26.6127 1 34 8.3873 34 17.5L 36 17.5ZM 17.5 -1C 7.28273 -1 -1 7.28273 -1 17.5L 1 17.5C 1 8.3873 8.3873 1 17.5 1L 17.5 -1ZM -1 17.5C -1 27.7173 7.28273 36 17.5 36L 17.5 34C 8.3873 34 1 26.6127 1 17.5L -1 17.5Z"/>
<path id="path2_fill" fill-rule="evenodd" d="M 2.4388 0L 2.4388 5.148C 2.4388 5.694 2.4118 6.2295 2.3578 6.7545C 2.3038 7.2795 2.2318 7.836 2.1418 8.424L 0.638797 8.424C 0.548796 7.836 0.476797 7.2795 0.422797 6.7545C 0.368797 6.2295 0.341797 5.694 0.341797 5.148L 0.341797 0L 2.4388 0ZM 0 11.79C 0 11.604 0.0344997 11.427 0.1035 11.259C 0.1725 11.091 0.268499 10.947 0.3915 10.827C 0.514501 10.707 0.659999 10.611 0.828 10.539C 0.996001 10.467 1.176 10.431 1.368 10.431C 1.554 10.431 1.731 10.467 1.899 10.539C 2.067 10.611 2.211 10.707 2.331 10.827C 2.451 10.947 2.547 11.091 2.619 11.259C 2.691 11.427 2.727 11.604 2.727 11.79C 2.727 11.982 2.691 12.1605 2.619 12.3255C 2.547 12.4905 2.451 12.633 2.331 12.753C 2.211 12.873 2.067 12.9675 1.899 13.0365C 1.731 13.1055 1.554 13.14 1.368 13.14C 1.176 13.14 0.996001 13.1055 0.828 13.0365C 0.659999 12.9675 0.514501 12.873 0.3915 12.753C 0.268499 12.633 0.1725 12.4905 0.1035 12.3255C 0.0344997 12.1605 0 11.982 0 11.79Z"/>
</defs>
</svg>
